<svg height="2494" width="720" xmlns="http://www.w3.org/2000/svg">
<rect height="2494" fill="#555" width="720"></rect>
<text fill="#7f7" font-family="Courier New" font-size="12" xml:space="preserve">
<tspan x="10" y="26">13 megabytes installed</tspan>
<tspan x="10" y="42"></tspan>
<tspan x="10" y="58">node_modules</tspan>
<tspan x="10" y="74">└─┬ postcss-cli@3.1.1 </tspan>
<tspan x="10" y="90">  ├─┬ chalk@1.1.3 </tspan>
<tspan x="10" y="106">  │ ├── ansi-styles@2.2.1 </tspan>
<tspan x="10" y="122">  │ ├── escape-string-regexp@1.0.5 </tspan>
<tspan x="10" y="138">  │ ├─┬ has-ansi@2.0.0 </tspan>
<tspan x="10" y="154">  │ │ └── ansi-regex@2.1.1 </tspan>
<tspan x="10" y="170">  │ ├── strip-ansi@3.0.1 </tspan>
<tspan x="10" y="186">  │ └── supports-color@2.0.0 </tspan>
<tspan x="10" y="202">  ├─┬ chokidar@1.6.1 </tspan>
<tspan x="10" y="218">  │ ├─┬ anymatch@1.3.0 </tspan>
<tspan x="10" y="234">  │ │ ├── arrify@1.0.1 </tspan>
<tspan x="10" y="250">  │ │ └─┬ micromatch@2.3.11 </tspan>
<tspan x="10" y="266">  │ │   ├─┬ arr-diff@2.0.0 </tspan>
<tspan x="10" y="282">  │ │   │ └── arr-flatten@1.0.3 </tspan>
<tspan x="10" y="298">  │ │   ├── array-unique@0.2.1 </tspan>
<tspan x="10" y="314">  │ │   ├─┬ braces@1.8.5 </tspan>
<tspan x="10" y="330">  │ │   │ ├─┬ expand-range@1.8.2 </tspan>
<tspan x="10" y="346">  │ │   │ │ └─┬ fill-range@2.2.3 </tspan>
<tspan x="10" y="362">  │ │   │ │   ├── is-number@2.1.0 </tspan>
<tspan x="10" y="378">  │ │   │ │   ├── isobject@2.1.0 </tspan>
<tspan x="10" y="394">  │ │   │ │   ├── randomatic@1.1.6 </tspan>
<tspan x="10" y="410">  │ │   │ │   └── repeat-string@1.6.1 </tspan>
<tspan x="10" y="426">  │ │   │ ├── preserve@0.2.0 </tspan>
<tspan x="10" y="442">  │ │   │ └── repeat-element@1.1.2 </tspan>
<tspan x="10" y="458">  │ │   ├─┬ expand-brackets@0.1.5 </tspan>
<tspan x="10" y="474">  │ │   │ └── is-posix-bracket@0.1.1 </tspan>
<tspan x="10" y="490">  │ │   ├── extglob@0.3.2 </tspan>
<tspan x="10" y="506">  │ │   ├── filename-regex@2.0.0 </tspan>
<tspan x="10" y="522">  │ │   ├─┬ kind-of@3.1.0 </tspan>
<tspan x="10" y="538">  │ │   │ └── is-buffer@1.1.5 </tspan>
<tspan x="10" y="554">  │ │   ├─┬ normalize-path@2.1.1 </tspan>
<tspan x="10" y="570">  │ │   │ └── remove-trailing-separator@1.0.1 </tspan>
<tspan x="10" y="586">  │ │   ├─┬ object.omit@2.0.1 </tspan>
<tspan x="10" y="602">  │ │   │ ├─┬ for-own@0.1.5 </tspan>
<tspan x="10" y="618">  │ │   │ │ └── for-in@1.0.2 </tspan>
<tspan x="10" y="634">  │ │   │ └── is-extendable@0.1.1 </tspan>
<tspan x="10" y="650">  │ │   ├─┬ parse-glob@3.0.4 </tspan>
<tspan x="10" y="666">  │ │   │ ├── glob-base@0.3.0 </tspan>
<tspan x="10" y="682">  │ │   │ └── is-dotfile@1.0.2 </tspan>
<tspan x="10" y="698">  │ │   └─┬ regex-cache@0.4.3 </tspan>
<tspan x="10" y="714">  │ │     ├── is-equal-shallow@0.1.3 </tspan>
<tspan x="10" y="730">  │ │     └── is-primitive@2.0.0 </tspan>
<tspan x="10" y="746">  │ ├── async-each@1.0.1 </tspan>
<tspan x="10" y="762">  │ ├── glob-parent@2.0.0 </tspan>
<tspan x="10" y="778">  │ ├── inherits@2.0.3 </tspan>
<tspan x="10" y="794">  │ ├─┬ is-binary-path@1.0.1 </tspan>
<tspan x="10" y="810">  │ │ └── binary-extensions@1.8.0 </tspan>
<tspan x="10" y="826">  │ ├─┬ is-glob@2.0.1 </tspan>
<tspan x="10" y="842">  │ │ └── is-extglob@1.0.0 </tspan>
<tspan x="10" y="858">  │ ├── path-is-absolute@1.0.1 </tspan>
<tspan x="10" y="874">  │ └─┬ readdirp@2.1.0 </tspan>
<tspan x="10" y="890">  │   ├── graceful-fs@4.1.11 </tspan>
<tspan x="10" y="906">  │   ├─┬ minimatch@3.0.3 </tspan>
<tspan x="10" y="922">  │   │ └─┬ brace-expansion@1.1.7 </tspan>
<tspan x="10" y="938">  │   │   ├── balanced-match@0.4.2 </tspan>
<tspan x="10" y="954">  │   │   └── concat-map@0.0.1 </tspan>
<tspan x="10" y="970">  │   ├─┬ readable-stream@2.2.9 </tspan>
<tspan x="10" y="986">  │   │ ├── buffer-shims@1.0.0 </tspan>
<tspan x="10" y="1002">  │   │ ├── core-util-is@1.0.2 </tspan>
<tspan x="10" y="1018">  │   │ ├── isarray@1.0.0 </tspan>
<tspan x="10" y="1034">  │   │ ├── process-nextick-args@1.0.7 </tspan>
<tspan x="10" y="1050">  │   │ ├── string_decoder@1.0.0 </tspan>
<tspan x="10" y="1066">  │   │ └── util-deprecate@1.0.2 </tspan>
<tspan x="10" y="1082">  │   └── set-immediate-shim@1.0.1 </tspan>
<tspan x="10" y="1098">  ├── dependency-graph@0.5.0 </tspan>
<tspan x="10" y="1114">  ├─┬ fs-promise@2.0.2 </tspan>
<tspan x="10" y="1130">  │ ├── any-promise@1.3.0 </tspan>
<tspan x="10" y="1146">  │ ├─┬ fs-extra@2.1.2 </tspan>
<tspan x="10" y="1162">  │ │ └── jsonfile@2.4.0 </tspan>
<tspan x="10" y="1178">  │ ├── mz@2.6.0 </tspan>
<tspan x="10" y="1194">  │ └─┬ thenify-all@1.6.0 </tspan>
<tspan x="10" y="1210">  │   └── thenify@3.2.1 </tspan>
<tspan x="10" y="1226">  ├── get-stdin@5.0.1 </tspan>
<tspan x="10" y="1242">  ├─┬ globby@6.1.0 </tspan>
<tspan x="10" y="1258">  │ ├─┬ array-union@1.0.2 </tspan>
<tspan x="10" y="1274">  │ │ └── array-uniq@1.0.3 </tspan>
<tspan x="10" y="1290">  │ ├─┬ glob@7.1.1 </tspan>
<tspan x="10" y="1306">  │ │ ├── fs.realpath@1.0.0 </tspan>
<tspan x="10" y="1322">  │ │ ├─┬ inflight@1.0.6 </tspan>
<tspan x="10" y="1338">  │ │ │ └── wrappy@1.0.2 </tspan>
<tspan x="10" y="1354">  │ │ └── once@1.4.0 </tspan>
<tspan x="10" y="1370">  │ ├── object-assign@4.1.1 </tspan>
<tspan x="10" y="1386">  │ ├── pify@2.3.0 </tspan>
<tspan x="10" y="1402">  │ └─┬ pinkie-promise@2.0.1 </tspan>
<tspan x="10" y="1418">  │   └── pinkie@2.0.4 </tspan>
<tspan x="10" y="1434">  ├─┬ ora@1.2.0 </tspan>
<tspan x="10" y="1450">  │ ├─┬ cli-cursor@2.1.0 </tspan>
<tspan x="10" y="1466">  │ │ └─┬ restore-cursor@2.0.0 </tspan>
<tspan x="10" y="1482">  │ │   ├─┬ onetime@2.0.1 </tspan>
<tspan x="10" y="1498">  │ │   │ └── mimic-fn@1.1.0 </tspan>
<tspan x="10" y="1514">  │ │   └── signal-exit@3.0.2 </tspan>
<tspan x="10" y="1530">  │ ├── cli-spinners@1.0.0 </tspan>
<tspan x="10" y="1546">  │ └── log-symbols@1.0.2 </tspan>
<tspan x="10" y="1562">  ├─┬ postcss@5.2.17 </tspan>
<tspan x="10" y="1578">  │ ├── js-base64@2.1.9 </tspan>
<tspan x="10" y="1594">  │ ├── source-map@0.5.6 </tspan>
<tspan x="10" y="1610">  │ └─┬ supports-color@3.2.3 </tspan>
<tspan x="10" y="1626">  │   └── has-flag@1.0.0 </tspan>
<tspan x="10" y="1642">  ├─┬ postcss-load-config@1.2.0 </tspan>
<tspan x="10" y="1658">  │ ├─┬ cosmiconfig@2.1.1 </tspan>
<tspan x="10" y="1674">  │ │ ├─┬ js-yaml@3.8.3 </tspan>
<tspan x="10" y="1690">  │ │ │ ├─┬ argparse@1.0.9 </tspan>
<tspan x="10" y="1706">  │ │ │ │ └── sprintf-js@1.0.3 </tspan>
<tspan x="10" y="1722">  │ │ │ └── esprima@3.1.3 </tspan>
<tspan x="10" y="1738">  │ │ ├── minimist@1.2.0 </tspan>
<tspan x="10" y="1754">  │ │ ├── os-homedir@1.0.2 </tspan>
<tspan x="10" y="1770">  │ │ ├─┬ parse-json@2.2.0 </tspan>
<tspan x="10" y="1786">  │ │ │ └─┬ error-ex@1.3.1 </tspan>
<tspan x="10" y="1802">  │ │ │   └── is-arrayish@0.2.1 </tspan>
<tspan x="10" y="1818">  │ │ └── require-from-string@1.2.1 </tspan>
<tspan x="10" y="1834">  │ ├── postcss-load-options@1.2.0 </tspan>
<tspan x="10" y="1850">  │ └── postcss-load-plugins@2.3.0 </tspan>
<tspan x="10" y="1866">  ├─┬ postcss-reporter@3.0.0 </tspan>
<tspan x="10" y="1882">  │ └── lodash@4.17.4 </tspan>
<tspan x="10" y="1898">  ├── read-cache@1.0.0 </tspan>
<tspan x="10" y="1914">  └─┬ yargs@7.1.0 </tspan>
<tspan x="10" y="1930">    ├── camelcase@3.0.0 </tspan>
<tspan x="10" y="1946">    ├─┬ cliui@3.2.0 </tspan>
<tspan x="10" y="1962">    │ └── wrap-ansi@2.1.0 </tspan>
<tspan x="10" y="1978">    ├── decamelize@1.2.0 </tspan>
<tspan x="10" y="1994">    ├── get-caller-file@1.0.2 </tspan>
<tspan x="10" y="2010">    ├─┬ os-locale@1.4.0 </tspan>
<tspan x="10" y="2026">    │ └─┬ lcid@1.0.0 </tspan>
<tspan x="10" y="2042">    │   └── invert-kv@1.0.0 </tspan>
<tspan x="10" y="2058">    ├─┬ read-pkg-up@1.0.1 </tspan>
<tspan x="10" y="2074">    │ ├─┬ find-up@1.1.2 </tspan>
<tspan x="10" y="2090">    │ │ └── path-exists@2.1.0 </tspan>
<tspan x="10" y="2106">    │ └─┬ read-pkg@1.1.0 </tspan>
<tspan x="10" y="2122">    │   ├─┬ load-json-file@1.1.0 </tspan>
<tspan x="10" y="2138">    │   │ └─┬ strip-bom@2.0.0 </tspan>
<tspan x="10" y="2154">    │   │   └── is-utf8@0.2.1 </tspan>
<tspan x="10" y="2170">    │   ├─┬ normalize-package-data@2.3.6 </tspan>
<tspan x="10" y="2186">    │   │ ├── hosted-git-info@2.4.2 </tspan>
<tspan x="10" y="2202">    │   │ ├─┬ is-builtin-module@1.0.0 </tspan>
<tspan x="10" y="2218">    │   │ │ └── builtin-modules@1.1.1 </tspan>
<tspan x="10" y="2234">    │   │ ├── semver@5.3.0 </tspan>
<tspan x="10" y="2250">    │   │ └─┬ validate-npm-package-license@3.0.1 </tspan>
<tspan x="10" y="2266">    │   │   ├─┬ spdx-correct@1.0.2 </tspan>
<tspan x="10" y="2282">    │   │   │ └── spdx-license-ids@1.2.2 </tspan>
<tspan x="10" y="2298">    │   │   └── spdx-expression-parse@1.0.4 </tspan>
<tspan x="10" y="2314">    │   └── path-type@1.1.0 </tspan>
<tspan x="10" y="2330">    ├── require-directory@2.1.1 </tspan>
<tspan x="10" y="2346">    ├── require-main-filename@1.0.1 </tspan>
<tspan x="10" y="2362">    ├── set-blocking@2.0.0 </tspan>
<tspan x="10" y="2378">    ├─┬ string-width@1.0.2 </tspan>
<tspan x="10" y="2394">    │ ├── code-point-at@1.1.0 </tspan>
<tspan x="10" y="2410">    │ └─┬ is-fullwidth-code-point@1.0.0 </tspan>
<tspan x="10" y="2426">    │   └── number-is-nan@1.0.1 </tspan>
<tspan x="10" y="2442">    ├── which-module@1.0.0 </tspan>
<tspan x="10" y="2458">    ├── y18n@3.2.1 </tspan>
<tspan x="10" y="2474">    └── yargs-parser@5.0.0</tspan>
</text>
</svg>
